<svg width="25" height="18" viewBox="0 0 25 18" fill="none" xmlns="http://www.w3.org/2000/svg">
<path d="M19.3182 16.3125C18.8661 16.3125 18.4326 16.1347 18.1129 15.8182C17.7932 15.5018 17.6136 15.0726 17.6136 14.625C17.6136 14.1774 17.7932 13.7482 18.1129 13.4318C18.4326 13.1153 18.8661 12.9375 19.3182 12.9375C19.7703 12.9375 20.2038 13.1153 20.5235 13.4318C20.8431 13.7482 21.0227 14.1774 21.0227 14.625C21.0227 15.0726 20.8431 15.5018 20.5235 15.8182C20.2038 16.1347 19.7703 16.3125 19.3182 16.3125ZM21.0227 6.1875L23.25 9H18.1818V6.1875M5.68182 16.3125C5.22974 16.3125 4.79619 16.1347 4.47652 15.8182C4.15686 15.5018 3.97727 15.0726 3.97727 14.625C3.97727 14.1774 4.15686 13.7482 4.47652 13.4318C4.79619 13.1153 5.22974 12.9375 5.68182 12.9375C6.13389 12.9375 6.56745 13.1153 6.88711 13.4318C7.20678 13.7482 7.38636 14.1774 7.38636 14.625C7.38636 15.0726 7.20678 15.5018 6.88711 15.8182C6.56745 16.1347 6.13389 16.3125 5.68182 16.3125ZM21.5909 4.5H18.1818V0H2.27273C1.01136 0 0 1.00125 0 2.25V14.625H2.27273C2.27273 15.5201 2.6319 16.3786 3.27123 17.0115C3.91056 17.6444 4.77767 18 5.68182 18C6.58597 18 7.45308 17.6444 8.09241 17.0115C8.73174 16.3786 9.09091 15.5201 9.09091 14.625H15.9091C15.9091 15.5201 16.2683 16.3786 16.9076 17.0115C17.5469 17.6444 18.414 18 19.3182 18C20.2223 18 21.0894 17.6444 21.7288 17.0115C22.3681 16.3786 22.7273 15.5201 22.7273 14.625H25V9L21.5909 4.5Z" fill="white"/>
</svg>
