<svg width="18" height="18" viewBox="0 0 18 18" fill="none" xmlns="http://www.w3.org/2000/svg">
<path d="M4.07812 13.6361C1.59553 10.9668 1.63943 6.78293 4.2186 4.185C5.22923 3.16214 6.54366 2.49373 7.96552 2.27963L7.8898 0C5.89358 0.239991 4.03766 1.14961 2.625 2.58037C-0.831077 6.05963 -0.872783 11.678 2.49001 15.2363L0.579233 17.1593L6.62655 17.4896L6.61009 11.0865L4.07812 13.6361ZM11.3733 0.510366L11.3898 6.91354L13.9218 4.365C16.4043 7.03646 16.3604 11.2204 13.7813 13.8161C12.7706 14.839 11.4562 15.5074 10.0343 15.7215L10.1101 18C12.106 17.7589 13.9618 16.8499 15.376 15.4207C18.8309 11.9393 18.8727 6.32085 15.5099 2.76476L17.4206 0.839634L11.3733 0.510366Z" fill="white"/>
</svg>
