<svg width="23" height="18" viewBox="0 0 23 18" fill="none" xmlns="http://www.w3.org/2000/svg">
<path d="M18.7156 0C17.9312 0.852613 16.9985 1.50913 15.9773 1.92729C14.9005 2.14325 11.9204 0.572623 10.4519 2.17597C10.2072 2.4541 9.90486 2.73223 9.58813 3.01036C8.8971 2.66679 7.83175 2.14325 7.05433 1.63607C6.27692 1.12889 4.31898 0 4.31898 0L0 5.72623C0 5.72623 1.06535 7.3623 1.72759 8.4421C2.15949 9.16197 2.69216 10.2581 3.03768 10.9944L2.5482 11.6488C2.43181 11.9136 2.3901 12.2128 2.42875 12.5056C2.46739 12.7984 2.58451 13.0705 2.76415 13.2849C2.97207 13.463 3.2255 13.5591 3.4859 13.5585C3.74629 13.5579 3.99939 13.4607 4.20668 13.2816C4.12972 13.384 4.07146 13.5028 4.03533 13.6311C3.99919 13.7593 3.98589 13.8945 3.99621 14.0287C4.00653 14.1629 4.04026 14.2933 4.09543 14.4125C4.1506 14.5317 4.2261 14.6373 4.31754 14.723C4.53767 14.8679 4.78767 14.9439 5.04208 14.9434C5.29648 14.9428 5.54621 14.8656 5.76584 14.7197C5.60135 14.9527 5.51134 15.2422 5.51056 15.541C5.50977 15.8397 5.59826 16.1298 5.76152 16.3639C5.9737 16.4477 6.20007 16.4744 6.42288 16.4421C6.64568 16.4097 6.85886 16.3191 7.04569 16.1774C6.95216 16.4278 6.92783 16.7046 6.97591 16.9711C7.02399 17.2376 7.14221 17.4812 7.31491 17.6695C7.55858 17.7914 7.82536 17.8415 8.09058 17.8152C8.3558 17.7889 8.61091 17.687 8.83231 17.519L9.57518 16.755C10.2547 17.5239 11.1919 18 12.227 18L12.3148 17.9984C12.656 17.9654 12.9829 17.8276 13.2603 17.5996C13.5378 17.3716 13.7554 17.0621 13.8898 16.7042C14.1 16.7959 14.339 16.858 14.5924 16.858C14.9321 16.858 15.2474 16.7468 15.5138 16.5554C16.356 15.9222 16.1544 15.4314 16.1544 15.4314C16.4539 15.5779 16.7865 15.6126 17.1045 15.5306C17.4225 15.4486 17.7093 15.254 17.9238 14.9749C18.1466 14.7158 18.2871 14.3797 18.3231 14.0197C18.3591 13.6597 18.2885 13.2964 18.1224 12.9871C18.1317 12.9929 18.1421 12.9957 18.1527 12.9953C18.7588 12.9953 19.2857 12.6157 19.5607 12.0562C19.6965 11.6586 19.7425 11.2287 19.6945 10.8057C19.6464 10.3827 19.5059 9.98015 19.2857 9.63479L19.29 9.64297C20.4705 9.3812 20.4273 8.71042 21.0032 7.72878C21.5478 6.92697 22.2264 6.25532 23 5.75241L18.7156 0ZM18.6436 11.5506C18.0101 12.2705 17.5207 11.9596 16.4409 11.0271C15.3612 10.0945 13.2161 8.34394 13.2161 8.34394C13.3039 8.84294 13.5069 9.27649 13.7934 9.6217C14.2526 10.2091 15.6203 11.5506 16.2682 12.2378C16.6713 12.6632 17.7078 13.5139 17.1032 14.1683C16.4985 14.8228 16.0234 14.1683 15.03 13.2521C14.0367 12.3359 11.8196 10.0782 11.8196 10.0782C11.8077 10.2946 11.8361 10.5114 11.9031 10.7144C11.9701 10.9174 12.0741 11.102 12.2083 11.2561C12.4531 11.5833 13.8207 13.0885 14.3966 13.7757C14.9725 14.4628 15.4763 14.8718 14.9869 15.4117C14.4974 15.9516 13.504 15.1009 12.9569 14.4628C12.1075 13.5303 10.4231 11.796 10.4231 11.796L10.4217 11.8827C10.4217 12.3474 10.5628 12.7728 10.8003 13.1098C11.2149 13.7282 12.0212 14.5299 12.5106 15.1516C13.0001 15.7733 13.2881 16.2969 12.5106 16.7877C11.7332 17.2785 10.5815 16.0678 10.0776 15.4788V15.4755C10.0792 15.3137 10.0279 15.1569 9.93365 15.0354C9.76111 14.8548 9.54865 14.7308 9.31893 14.6766C9.08921 14.6224 8.85086 14.6401 8.62932 14.7279C8.72024 14.635 8.7931 14.5216 8.84325 14.3949C8.89339 14.2683 8.91972 14.1311 8.92053 13.9922C8.92134 13.8533 8.89663 13.7157 8.84797 13.5883C8.79931 13.4608 8.72778 13.3463 8.63796 13.2521C8.44898 13.0894 8.21832 13.0015 7.98123 13.0018C7.74414 13.0021 7.51365 13.0906 7.32499 13.2538C7.42038 13.1502 7.49403 13.0236 7.54044 12.8832C7.58686 12.7429 7.60486 12.5925 7.5931 12.4432C7.58134 12.2938 7.54013 12.1494 7.47253 12.0207C7.40493 11.892 7.31267 11.7822 7.20262 11.6995C6.94489 11.5155 6.64247 11.429 6.3388 11.4525C6.03513 11.476 5.74583 11.6083 5.51246 11.8304C5.66843 11.6156 5.74533 11.3406 5.72709 11.0628C5.70884 10.7851 5.59687 10.5261 5.41456 10.3399C5.18752 10.1012 4.89885 9.95194 4.59133 9.91422C4.2838 9.87651 3.97376 9.95235 3.70712 10.1305L2.74975 8.29322C2.08751 7.09889 1.31009 5.85548 1.31009 5.85548L4.59251 1.32358C4.59251 1.32358 5.75864 2.14161 6.72321 2.76332C7.1983 3.07417 8.0189 3.48318 8.63796 3.8104C7.65899 4.64479 6.83838 5.44646 7.08312 6.00273C7.51895 6.35941 8.0403 6.5562 8.5773 6.56672C9.1143 6.57725 9.6413 6.40101 10.0877 6.06163C10.6601 5.62803 11.3333 5.39845 12.0212 5.40229C12.5207 5.40229 12.9958 5.52009 13.4263 5.73441C14.2238 6.3463 15.6923 7.85148 17.0312 8.8004C18.7156 10.1911 19.0467 11.0909 18.6436 11.549V11.5506Z" fill="white"/>
</svg>
